<?xml version="1.0" encoding="UTF-8" standalone="no"?>
<svg
   width="32"
   height="32"
   viewBox="0 0 32 32"
   version="1.1"
   xmlns="http://www.w3.org/2000/svg">
   <path
      d="m 8.4899711,31.940894 c -0.1647337,-0.0579 -0.4334194,-0.235022 -0.6480494,-0.428915 -0.02177,-0.01966 -0.057284,-0.05312 -0.078898,-0.07511 C 7.5439904,31.214085 7.3189554,30.855139 7.2289524,30.58549 7.2192613,30.55645 7.2059762,30.508418 7.1985337,30.478508 7.1291585,30.19965 7.0734025,29.759626 7.0670792,29.43968 c -6.046e-4,-0.03059 -5.976e-4,-0.08039 -9.171e-4,-0.111213 -0.00243,-0.23489 -0.01829,-0.433382 -0.039831,-0.5207 -0.00708,-0.0287 -0.048876,-0.04145 -0.078177,-0.03133 -0.2110343,0.07288 -1.0062973,0.38174 -1.934142,0.75189 -0.027977,0.01117 -0.073864,0.02949 -0.1025136,0.04089 -0.9828013,0.390855 -1.9033896,0.71327 -2.1684782,0.761502 -0.029066,0.0052 -0.078206,0.0061 -0.1087883,0.0023 -0.1762033,-0.02164 -0.4965395,-0.132202 -0.7722115,-0.267872 -0.026361,-0.01297 -0.069816,-0.03521 -0.09688,-0.04998 C 1.4482251,29.842237 1.1749256,29.591385 1.025317,29.336533 1.009725,29.309973 0.9865749,29.265663 0.9734629,29.237763 0.86138302,28.999268 0.77160688,28.639905 0.75987126,28.382861 c -0.001385,-0.03022 -0.001295,-0.07981 0.001563,-0.110499 0.0355579,-0.381564 0.40216654,-1.41695 1.08062594,-3.051259 0.011154,-0.02687 0.029811,-0.07172 0.041649,-0.100194 0.6030477,-1.450231 1.6046444,-3.868359 2.2538633,-5.441444 0.011762,-0.0285 0.030828,-0.0747 0.042592,-0.103208 0.6698349,-1.622905 2.4329704,-5.879375 3.9536799,-9.544747 0.011815,-0.02848 0.03097,-0.074649 0.042785,-0.1031301 L 10.937317,3.2744184 a 0.14425365,0.14425365 0 0 0 0.0025,-0.1040934 L 10.779209,2.7236846 c -0.01038,-0.029012 -0.02739,-0.076036 -0.03751,-0.1051574 -0.13799,-0.3969485 -0.14594,-0.5925314 -0.03852,-0.9692914 0.0086,-0.03005 0.02301,-0.078265 0.03264,-0.1075534 0.08514,-0.2591098 0.240965,-0.57858892 0.371764,-0.76304259 0.0176,-0.0248195 0.04832,-0.0639122 0.06923,-0.0865545 0.156191,-0.16910533 0.475133,-0.37775115 0.759461,-0.49573713 0.02762,-0.0114607 0.07364,-0.0289684 0.102449,-0.039968 l 0.177112,-0.06764013 a 1.0848496,1.0848496 0 0 1 0.712549,-0.0214064 l 0.347968,0.10945032 c 0.02941,0.009256 0.07711,0.02423 0.106312,0.0340819 0.438076,0.14772226 1.445497,0.58868991 2.303286,1.01045773 0.0275,0.013521 0.07218,0.035595 0.09976,0.049368 0.893608,0.4461872 2.316802,1.2745237 3.224367,1.876762 0.02553,0.016945 0.06698,0.044632 0.09258,0.061808 0.892482,0.5986884 2.037479,1.435819 2.604576,1.9039303 0.02366,0.019526 0.06191,0.051505 0.08544,0.071425 0.562732,0.4763507 1.612388,1.4734358 2.386838,2.2676831 0.02141,0.021961 0.05616,0.057718 0.07761,0.079871 0.773511,0.7991803 1.759124,1.9107663 2.239555,2.525402 0.01888,0.02415 0.04934,0.06362 0.06812,0.08806 0.456735,0.594489 1.067334,1.444458 1.398011,1.945869 0.01695,0.0257 0.04425,0.06751 0.06096,0.09343 0.327067,0.507067 0.871492,1.441411 1.245514,2.13786 0.01456,0.0271 0.03807,0.07114 0.05255,0.09836 0.372784,0.701035 0.873309,1.704462 1.143863,2.292974 0.01286,0.02798 0.03358,0.07344 0.04621,0.101567 0.281828,0.627583 0.450126,1.172512 0.467135,1.510639 0.0016,0.03017 0.0015,0.07967 4.93e-4,0.110487 -0.0086,0.264363 -0.07572,0.592864 -0.160235,0.786823 -0.01207,0.02769 -0.03495,0.07161 -0.05038,0.09831 -0.103866,0.179505 -0.295268,0.423897 -0.460623,0.587792 -0.02171,0.02152 -0.05802,0.05555 -0.0813,0.07575 -0.238518,0.206999 -0.496176,0.291823 -0.999339,0.331467 -0.03077,0.0025 -0.08066,0.0059 -0.111425,0.0079 -0.560822,0.03593 -0.767492,-0.0061 -1.11072,-0.230883 -0.02623,-0.01717 -0.06797,-0.04542 -0.09278,-0.06373 -0.227164,-0.167634 -0.486524,-0.457099 -0.615463,-0.68669 -0.01476,-0.02629 -0.03671,-0.07061 -0.05039,-0.09824 -0.149876,-0.302644 -0.569264,-1.157304 -0.975386,-1.987798 -0.01354,-0.0277 -0.03549,-0.0726 -0.0491,-0.100261 -0.42868,-0.87093 -1.076549,-2.040626 -1.474499,-2.662581 -0.01653,-0.02583 -0.04367,-0.06767 -0.06057,-0.09346 -0.400389,-0.611056 -1.119399,-1.593839 -1.639399,-2.24067 -0.01926,-0.02396 -0.05064,-0.06276 -0.07017,-0.08662 -0.538539,-0.658065 -1.588735,-1.780047 -2.383636,-2.5462395 -0.02206,-0.021269 -0.05802,-0.055757 -0.08033,-0.077026 -0.801171,-0.7638118 -2.009019,-1.7816952 -2.739079,-2.3085511 -0.0248,-0.0179 -0.06535,-0.0468 -0.0905,-0.064637 -0.7156,-0.5075881 -1.73777,-1.17249 -2.331293,-1.5166498 -0.02658,-0.015419 -0.0699,-0.040224 -0.09672,-0.055434 -0.585573,-0.3321119 -1.518853,-0.8053109 -2.135532,-1.0827724 -0.02805,-0.012621 -0.07367,-0.032913 -0.101868,-0.045384 -0.502728,-0.222354 -0.935187,-0.3940921 -1.082624,-0.4320069 -0.02865,-0.00737 -0.06529,0.017013 -0.07819,0.045371 -0.06823,0.1499813 -0.260356,0.608072 -0.476629,1.1375706 -0.01143,0.027996 -0.03013,0.073839 -0.04175,0.1023986 -0.217972,0.5360772 -0.399784,1.0086136 -0.449698,1.1663746 -0.009,0.028747 -0.0032,0.076487 0.02038,0.094378 0.06591,0.049959 0.221029,0.1217662 0.405956,0.1858513 0.0291,0.010082 0.0766,0.025584 0.105653,0.035892 0.25398,0.090094 0.613214,0.2604984 0.852551,0.4044734 0.02627,0.015803 0.06845,0.042384 0.09399,0.059652 0.246755,0.1668267 0.632849,0.5055523 0.906392,0.7958037 0.02091,0.022195 0.05458,0.058776 0.07509,0.081802 0.271246,0.30459 0.597956,0.7731467 0.762741,1.0935524 0.01395,0.027105 0.03559,0.07185 0.04838,0.099908 0.149781,0.3288612 0.320674,0.8804671 0.398537,1.2872291 0.0057,0.02997 0.01436,0.07895 0.01941,0.10936 0.08317,0.501357 0.08397,0.938649 0.0026,1.410647 -0.0052,0.03051 -0.01437,0.07977 -0.02052,0.109974 -0.07838,0.384483 -0.259842,0.925691 -0.4234,1.263043 -0.01331,0.02744 -0.03594,0.07172 -0.05044,0.09893 -0.176152,0.330423 -0.492854,0.799034 -0.739536,1.094182 -0.01963,0.02348 -0.05214,0.06122 -0.07288,0.08403 -0.296121,0.325671 -0.789897,0.677559 -1.337691,0.952865 -0.02728,0.01371 -0.07192,0.03564 -0.0997,0.04901 -0.578717,0.278775 -1.145339,0.456614 -1.6421,0.515471 -0.03054,0.0036 -0.0802,0.0086 -0.110878,0.01173 l -0.6910116,0.07023 a 0.09516047,0.09516047 0 0 1 -0.087566,-0.04008 L 9.1553486,16.050052 c -0.017685,-0.02526 -0.046454,-0.06614 -0.063624,-0.09174 -0.1397655,-0.208433 -0.1476055,-0.298193 -0.036838,-0.479175 0.017098,-0.02793 0.045504,-0.07106 0.065163,-0.0948 0.1324768,-0.159907 0.3673197,-0.244037 0.8248616,-0.298454 0.030324,-0.0036 0.079784,-0.0089 0.1103428,-0.01309 0.389864,-0.05275 0.97425,-0.227703 1.359917,-0.407306 0.0275,-0.01281 0.07205,-0.0346 0.09952,-0.04859 0.435107,-0.221505 0.820183,-0.531449 1.104235,-0.888738 0.01918,-0.02413 0.04952,-0.06386 0.06768,-0.08877 0.232329,-0.318502 0.491456,-0.817237 0.605064,-1.164258 0.0095,-0.02883 0.02354,-0.07637 0.03188,-0.106044 0.09377,-0.333844 0.169562,-0.769463 0.179622,-1.029914 0.0012,-0.03046 0.0012,-0.08019 -7.2e-5,-0.11099 -0.01061,-0.262927 -0.09048,-0.712373 -0.189098,-1.061586 -0.0083,-0.02931 -0.0224,-0.07694 -0.03167,-0.106334 C 13.135576,9.5953746 12.903693,9.2353667 12.450781,8.7678957 12.429311,8.745729 12.394253,8.7100505 12.372404,8.6882969 11.97623,8.2938057 11.524491,7.9721065 11.155267,7.8210475 11.126774,7.8093914 11.079949,7.791972 11.050943,7.7815295 10.794576,7.6892474 10.562394,7.6300594 10.458195,7.628027 c -0.03027,-5.904e-4 -0.06713,0.031867 -0.08074,0.059482 -0.126454,0.256532 -0.6486297,1.4748342 -1.2459189,2.909394 -0.011522,0.02769 -0.030468,0.07321 -0.042312,0.101667 -0.6735326,1.618856 -1.9734249,4.753992 -2.9181425,7.038114 -0.011783,0.02849 -0.030888,0.07468 -0.042671,0.103175 -0.9451754,2.285308 -2.2583771,5.457919 -2.9475161,7.121014 -0.011802,0.02848 -0.03094,0.07466 -0.042726,0.103153 -0.6317435,1.527105 -1.1533731,2.903275 -1.2221564,3.218487 -0.00621,0.02843 -0.00783,0.0772 -0.00423,0.107808 0.017135,0.146105 0.0961,0.333941 0.1949534,0.462862 0.018658,0.02434 0.052161,0.0614 0.074834,0.08227 0.1183336,0.108969 0.296862,0.196002 0.4402101,0.215012 0.030391,0.004 0.080473,0.0027 0.1106606,-0.0035 0.2812565,-0.05708 1.302934,-0.439356 2.4049072,-0.902136 0.027003,-0.01134 0.071916,-0.03027 0.1003431,-0.0422 1.1059732,-0.46441 2.1340836,-0.849824 2.4144257,-0.907225 0.028809,-0.0059 0.077787,-0.008 0.1085114,-0.0057 0.1291868,0.01016 0.2608142,0.06195 0.333475,0.130364 0.022324,0.02102 0.047609,0.06477 0.055726,0.09442 0.052278,0.191019 0.093294,0.782054 0.096349,1.422915 1.386e-4,0.02906 1.984e-4,0.07762 2.756e-4,0.108456 0.00263,1.053807 0.035733,1.30095 0.2262801,1.513388 0.020568,0.02293 0.056016,0.05821 0.079109,0.07863 0.087502,0.07737 0.1945754,0.144061 0.2913067,0.184224 0.086329,0.03584 0.2418775,0.03702 0.3317342,0.0094 0.1013546,-0.03114 0.2162222,-0.08311 0.3126777,-0.143465 0.025567,-0.016 0.066018,-0.04446 0.091273,-0.06216 l 0.1094939,-0.07669 a 0.32093399,0.32093399 0 0 0 0.1368143,-0.262865 v -1.790292 c 0,-0.03083 -2.3e-6,-0.08082 2.34e-5,-0.111649 0.00105,-1.267372 0.03834,-1.867714 0.1305899,-2.045665 0.014213,-0.02742 0.054016,-0.05931 0.080934,-0.07432 0.20805,-0.116035 0.978933,-0.45605 1.840321,-0.8103 0.0279,-0.01148 0.07364,-0.03024 0.10217,-0.04193 0.987468,-0.404979 1.316382,-0.536682 1.497223,-0.540726 0.133865,-0.003 0.335992,0.123995 0.419807,0.229913 0.08752,0.1106 0.14357,0.26436 0.223978,0.507626 0.0096,0.02897 0.02511,0.07622 0.03445,0.105608 0.08399,0.264075 0.15348,0.543345 0.190106,0.701968 0.0069,0.02999 0.01764,0.07898 0.02939,0.107439 0.0519,0.125783 0.186582,0.267474 0.333336,0.349447 0.02677,0.01495 0.07221,0.03562 0.100673,0.04745 0.207784,0.0864 0.347393,0.08809 0.5257,0.0056 0.02821,-0.01305 0.0726,-0.03658 0.0993,-0.05199 0.117839,-0.06813 0.236156,-0.157547 0.301224,-0.226899 0.02067,-0.02203 0.04613,-0.06487 0.05344,-0.09472 0.0431,-0.176353 0.07676,-0.713551 0.07955,-1.304623 1.38e-4,-0.02907 1.97e-4,-0.07764 3.33e-4,-0.108467 0.0027,-0.611425 0.03386,-1.010728 0.09482,-1.209088 0.02435,-0.07923 0.129696,-0.167193 0.205209,-0.203773 0.378814,-0.18351 1.485841,-0.661005 2.739309,-1.179389 0.02783,-0.01151 0.0735,-0.03038 0.101991,-0.04215 1.48433,-0.613262 3.423337,-1.415524 4.380592,-1.812465 0.02848,-0.01181 0.07465,-0.03096 0.103141,-0.04274 0.833437,-0.34454 1.588922,-0.629918 1.807392,-0.684413 0.02878,-0.0071 0.0781,-0.0094 0.108355,-0.0037 0.0808,0.01527 0.176832,0.0599 0.248492,0.11579 0.0239,0.01865 0.05907,0.05401 0.07653,0.07936 0.06139,0.08916 0.10936,0.235648 0.120118,0.369017 0.0025,0.02999 0.0027,0.07951 -3.41e-4,0.110175 -0.01844,0.187729 -0.137426,0.305796 -0.439179,0.440762 -0.02803,0.01254 -0.07397,0.032 -0.102382,0.04396 -0.407824,0.171646 -2.257763,0.938336 -4.266252,1.768019 -0.02837,0.01172 -0.07446,0.03076 -0.102963,0.04253 l -3.773095,1.558543 a 0.08963826,0.08963826 0 0 0 -0.05522,0.07702 l -0.06482,0.994549 c -0.002,0.03077 -0.0052,0.08064 -0.0075,0.111403 -0.04396,0.613937 -0.14838,1.158242 -0.274322,1.434451 -0.01243,0.02725 -0.03555,0.07081 -0.05139,0.09726 -0.128193,0.21411 -0.370267,0.470446 -0.577231,0.611146 -0.02495,0.01696 -0.0672,0.04274 -0.09427,0.0575 -0.239859,0.130771 -0.588995,0.218494 -0.907879,0.227807 -0.03077,8.97e-4 -0.08072,8.99e-4 -0.111537,2.8e-5 -0.327485,-0.0093 -0.673675,-0.09885 -0.928429,-0.240135 -0.02694,-0.01494 -0.06964,-0.04094 -0.09523,-0.05814 -0.259193,-0.174086 -0.477869,-0.457388 -0.64674,-0.837981 -0.0125,-0.02818 -0.03189,-0.07426 -0.0441,-0.102561 -0.113044,-0.261813 -0.226589,-0.481298 -0.289599,-0.56389 -0.01771,-0.0232 -0.06428,-0.03046 -0.09372,-0.02089 -0.13458,0.04373 -0.489241,0.183477 -0.887737,0.350651 -0.0278,0.01166 -0.07334,0.03086 -0.101756,0.04283 l -0.813119,0.342666 a 0.08745447,0.08745447 0 0 0 -0.05344,0.07747 l -0.06171,1.727062 c -0.0011,0.03081 -0.0029,0.08077 -0.004,0.111582 -0.05318,1.465976 -0.09851,1.80393 -0.302063,2.099914 -0.01745,0.02538 -0.04747,0.06535 -0.06662,0.08951 -0.139645,0.17621 -0.352564,0.390309 -0.512963,0.51601 -0.02409,0.01888 -0.0645,0.04809 -0.09062,0.06444 -0.1722165,0.107842 -0.4544565,0.21203 -0.6796675,0.250554 -0.029855,0.0051 -0.079036,0.01133 -0.1096949,0.01451 -0.2185305,0.02271 -0.4838551,0.02267 -0.6460092,3.27e-4 -0.030221,-0.0041 -0.054476,-0.0092 -0.054481,-0.0092 z M 29.584571,19.020469 c 0.152066,-0.141355 0.241972,-0.333686 0.255357,-0.546341 0.0019,-0.03076 0.0013,-0.08089 -0.0034,-0.111325 -0.0443,-0.284973 -0.37067,-1.112377 -0.767388,-1.938729 -0.01265,-0.02636 -0.03385,-0.07019 -0.04732,-0.09793 -0.424369,-0.873766 -1.022751,-2.001703 -1.364132,-2.571865 -0.01578,-0.02635 -0.04168,-0.069 -0.05776,-0.0953 -0.334646,-0.547353 -0.869495,-1.358684 -1.226334,-1.860306 -0.01785,-0.02509 -0.04695,-0.06569 -0.06502,-0.09068 -0.365131,-0.504922 -1.019896,-1.341814 -1.498255,-1.9148589 -0.01973,-0.023636 -0.05183,-0.061909 -0.07176,-0.085434 C 24.244145,9.1240618 23.34201,8.1717616 22.684876,7.539967 22.662734,7.5186782 22.626668,7.4842003 22.604327,7.4629529 21.943673,6.834625 20.954696,5.9709906 20.353134,5.4969242 20.328994,5.4778996 20.289654,5.4471824 20.265276,5.428309 19.661657,4.9610047 18.618262,4.2309247 17.888743,3.7655116 c -0.02592,-0.016537 -0.06808,-0.043269 -0.09418,-0.05968 -0.73808,-0.4640995 -1.934089,-1.1297063 -2.719392,-1.5134003 -0.0276,-0.013483 -0.0725,-0.035214 -0.100272,-0.048613 C 14.234889,1.7867218 13.444699,1.428834 13.13594,1.310343 13.10725,1.299334 13.06024,1.282545 13.031035,1.272664 12.715312,1.1658452 12.53616,1.1588405 12.317674,1.246947 c -0.02873,0.011586 -0.07441,0.032388 -0.100998,0.047979 -0.148768,0.087256 -0.292431,0.2569538 -0.35129,0.4148316 -0.01072,0.028738 -0.02283,0.077251 -0.02777,0.1076751 -0.02753,0.1696499 -0.0058,0.4002066 0.05307,0.5631613 0.01027,0.028351 0.03077,0.073477 0.04679,0.099795 0.09368,0.1538586 0.298675,0.3208068 0.497075,0.4039065 0.02824,0.011825 0.07537,0.028009 0.104101,0.039193 0.293469,0.1142416 1.136481,0.5108981 1.967241,0.9264257 0.0274,0.013707 0.07196,0.036037 0.09947,0.04994 0.882572,0.4459077 2.141916,1.1695833 2.860329,1.6435479 0.02561,0.016895 0.0671,0.044552 0.09269,0.061738 0.703478,0.4723161 1.702393,1.2180846 2.276263,1.6992929 0.02353,0.019737 0.06161,0.051986 0.08505,0.072013 0.572827,0.4894193 1.530094,1.3878795 2.179253,2.0455487 0.0216,0.021883 0.05658,0.057488 0.07815,0.079527 0.639204,0.6531083 1.435979,1.5294903 1.820531,2.0020323 0.01938,0.02381 0.05059,0.06273 0.06974,0.08691 0.374244,0.472519 1.01131,1.36373 1.457163,2.038777 0.01695,0.02566 0.04436,0.06737 0.0612,0.0932 0.449843,0.690194 1.097406,1.802206 1.474356,2.531796 0.0141,0.0273 0.03684,0.07173 0.05086,0.0992 0.358559,0.703076 0.760375,1.546196 0.926697,1.943731 0.01185,0.02832 0.03055,0.07457 0.04255,0.102962 0.158001,0.373773 0.340936,0.636701 0.511401,0.736604 0.02657,0.01558 0.07317,0.0341 0.102046,0.04492 0.123866,0.04641 0.258579,0.08608 0.34522,0.102102 0.02991,0.0056 0.08002,0.0076 0.109706,-4.13e-4 0.0888,-0.02383 0.227416,-0.09951 0.352663,-0.194092 0.02303,-0.0174 0.04118,-0.03219 0.04119,-0.03219 z M 4.3897173,26.274323 c -0.095557,-0.228444 -0.07498,-0.344136 0.1021998,-0.591681 0.01872,-0.02616 0.049189,-0.06716 0.068537,-0.09115 0.1388465,-0.172236 0.3594763,-0.372209 0.5315912,-0.482025 0.025671,-0.01638 0.06888,-0.04095 0.096105,-0.05541 0.2085726,-0.110845 0.3378948,-0.125814 0.4807511,-0.05332 0.027686,0.01404 0.070282,0.04099 0.093484,0.06124 0.097445,0.08507 0.1848296,0.23982 0.2167554,0.384921 0.0066,0.02997 0.012739,0.0796 0.013529,0.11041 0.0053,0.207012 -0.1066457,0.390063 -0.3943854,0.649829 -0.0227,0.02049 -0.060108,0.05336 -0.083748,0.07314 -0.2219205,0.185791 -0.4831947,0.33737 -0.6350469,0.37067 -0.029855,0.0066 -0.080201,0.0071 -0.1103357,9.33e-4 -0.1228989,-0.0255 -0.2509913,-0.131793 -0.3318377,-0.276623 -0.015022,-0.02691 -0.025194,-0.04979 -0.025194,-0.04978 z m 3.6561408,-2.275162 c -0.241675,-0.14011 -0.5397138,-0.398642 -0.7067913,-0.61307 -0.0186,-0.02387 -0.047377,-0.0642 -0.064714,-0.08969 -0.2142736,-0.315073 -0.2711459,-0.569383 -0.2741718,-1.204792 -1.475e-4,-0.03096 -1.485e-4,-0.08105 1.22e-5,-0.111883 0.00316,-0.605475 0.059531,-0.879645 0.2382933,-1.139118 0.01745,-0.02533 0.047401,-0.06529 0.066523,-0.08948 0.1406861,-0.177928 0.3583632,-0.398797 0.5236019,-0.531413 0.023892,-0.01917 0.063828,-0.04901 0.0895,-0.06608 0.1787921,-0.118857 0.4763935,-0.248425 0.7139768,-0.310499 0.029414,-0.0077 0.077854,-0.01862 0.1081865,-0.02413 0.2487264,-0.04514 0.6081237,-0.04509 0.8565945,1.57e-4 0.029855,0.0055 0.078254,0.01636 0.1080759,0.02417 0.2385586,0.06252 0.5397369,0.193967 0.7218949,0.314797 0.02534,0.01681 0.06526,0.04638 0.08917,0.06583 0.17348,0.141053 0.412074,0.399983 0.569989,0.619102 0.01784,0.02475 0.04599,0.06575 0.06302,0.09146 0.222859,0.336479 0.263975,0.544535 0.230432,1.138955 -0.0018,0.03125 -0.0048,0.08151 -0.007,0.112272 -0.03585,0.501205 -0.130454,0.836452 -0.315778,1.116696 -0.017,0.02571 -0.04603,0.06644 -0.06508,0.09068 -0.167386,0.21302 -0.475363,0.472199 -0.729782,0.613834 -0.02639,0.01469 -0.07049,0.03719 -0.09847,0.05013 -0.269281,0.124473 -0.6751139,0.220523 -0.9680186,0.229094 -0.030223,8.85e-4 -0.07974,3.8e-4 -0.1105356,-0.0011 -0.2891236,-0.01423 -0.6867805,-0.113297 -0.9411362,-0.23432 -0.027287,-0.01299 -0.071068,-0.03611 -0.09774,-0.05157 z m 1.7570026,-0.996798 c 0.1057871,-0.06865 0.2439063,-0.230303 0.3408913,-0.401185 0.01455,-0.02562 0.03703,-0.06905 0.04995,-0.09705 0.09661,-0.209486 0.134595,-0.444222 0.103052,-0.634854 -0.005,-0.03039 -0.01724,-0.0789 -0.0263,-0.108366 -0.05002,-0.162568 -0.148311,-0.357177 -0.241375,-0.478381 -0.01853,-0.02413 -0.051872,-0.06112 -0.075184,-0.08126 -0.1213342,-0.104793 -0.348594,-0.211949 -0.5542386,-0.26032 -0.029151,-0.0068 -0.077585,-0.01597 -0.1080648,-0.0206 -0.2596085,-0.03946 -0.4714361,-0.0031 -0.6737212,0.115584 -0.026615,0.01562 -0.068463,0.0431 -0.093058,0.06169 -0.155633,0.117587 -0.3202918,0.317788 -0.3995445,0.485649 -0.012874,0.02726 -0.03047,0.07355 -0.039594,0.102996 -0.052428,0.169186 -0.072279,0.392384 -0.048953,0.546984 0.00451,0.02989 0.016599,0.078 0.026634,0.107138 0.051025,0.148169 0.1659142,0.33991 0.2820586,0.470139 0.020196,0.02264 0.055248,0.05783 0.078873,0.07763 0.149839,0.125551 0.3802407,0.208724 0.6116723,0.220396 0.030755,0.0016 0.080735,0.0015 0.1115594,8.17e-4 0.2026234,-0.0042 0.426738,-0.03063 0.5537763,-0.06453 0.029241,-0.0078 0.052263,-0.0165 0.052263,-0.0165 z m 5.7700373,-1.53576 c -0.07619,-0.165108 -0.07746,-0.307691 -0.0046,-0.489819 0.01151,-0.02875 0.03223,-0.07442 0.04694,-0.101522 0.09218,-0.170001 0.223046,-0.248862 0.431753,-0.260394 0.03104,-0.0017 0.08127,-0.0017 0.112047,1.9e-4 0.161434,0.0096 0.333191,0.05865 0.429439,0.121697 0.02548,0.01669 0.06104,0.05204 0.07887,0.07715 0.06023,0.08485 0.107473,0.21758 0.119195,0.336173 0.003,0.03005 0.003,0.07966 -1.13e-4,0.11032 -0.01195,0.118737 -0.05939,0.251427 -0.119741,0.335967 -0.01753,0.02455 -0.05291,0.05972 -0.07863,0.07662 -0.09558,0.06278 -0.264219,0.111657 -0.422114,0.121265 -0.03047,0.0019 -0.08028,0.0019 -0.111023,-1.68e-4 -0.187771,-0.01294 -0.335478,-0.0922 -0.428262,-0.229703 -0.01725,-0.02556 -0.02883,-0.04783 -0.02886,-0.04783 z m -2.499268,-1.644767 -0.06422,-0.052 a 0.41115444,0.41115444 0 0 1 -0.149277,-0.370232 l 0.111213,-0.894974 c 0.0038,-0.03059 0.0099,-0.08021 0.0139,-0.110778 0.07229,-0.559757 0.180738,-1.080098 0.258491,-1.251244 0.01205,-0.02652 0.04227,-0.06528 0.06626,-0.08456 0.07798,-0.06266 0.200298,-0.102784 0.311026,-0.101645 0.03072,3.17e-4 0.08033,0.0078 0.109974,0.01623 0.111202,0.03148 0.230866,0.106446 0.302593,0.18937 0.02008,0.02321 0.0461,0.06631 0.05543,0.09562 0.05705,0.179137 0.06383,0.644095 0.0165,1.243585 -0.0023,0.03028 -0.0065,0.07973 -0.0093,0.110431 -0.05525,0.62777 -0.145489,1.070601 -0.251125,1.238102 -0.01624,0.02576 -0.05137,0.06135 -0.07429,0.08197 -0.02608,0.02346 -0.05301,0.04542 -0.07948,0.06504 -0.09027,0.06689 -0.27279,0.06615 -0.369432,0.0064 -0.05118,-0.03164 -0.10716,-0.07025 -0.162234,-0.112495 -0.02385,-0.01829 -0.04274,-0.03368 -0.04274,-0.03368 z m 5.505806,-0.504929 c -0.463234,-0.2459 -0.783453,-0.525719 -1.061349,-0.927579 -0.01755,-0.02538 -0.04534,-0.06697 -0.06189,-0.09298 -0.207483,-0.326193 -0.406176,-0.797347 -0.466274,-1.104429 -0.0058,-0.02953 -0.01309,-0.0784 -0.01691,-0.108992 -0.03721,-0.296973 -0.03658,-0.716104 0.0013,-0.991857 0.0041,-0.03025 0.01244,-0.07932 0.01881,-0.109483 0.05768,-0.273033 0.216954,-0.665391 0.376841,-0.927593 0.0158,-0.0259 0.04284,-0.06748 0.06042,-0.09279 0.179108,-0.257699 0.49972,-0.591119 0.754891,-0.78494 0.0242,-0.01839 0.06457,-0.04729 0.09025,-0.06434 0.271386,-0.180222 0.727786,-0.375958 1.071067,-0.459094 0.02942,-0.0071 0.07785,-0.0175 0.108064,-0.02368 0.487451,-0.09993 0.753004,-0.08707 1.276391,0.06113 0.0299,0.0085 0.0781,0.02245 0.107517,0.03165 0.361519,0.112994 0.797888,0.32563 1.026498,0.499523 0.02397,0.01823 0.0618,0.05007 0.0846,0.07082 0.210685,0.191696 0.501377,0.55375 0.684706,0.853484 0.01586,0.02594 0.04096,0.06877 0.05623,0.09555 0.242154,0.424955 0.317947,0.726886 0.325753,1.294228 4.27e-4,0.03101 7.35e-4,0.08114 5.54e-4,0.111963 -0.0028,0.474038 -0.07742,0.887105 -0.216385,1.198022 -0.01257,0.02813 -0.03452,0.07306 -0.04881,0.100372 -0.133713,0.255617 -0.374473,0.594144 -0.569895,0.801319 -0.02093,0.0222 -0.0561,0.05737 -0.07841,0.07866 -0.200312,0.191296 -0.497339,0.415397 -0.707361,0.533969 -0.02661,0.01503 -0.07085,0.03789 -0.09909,0.05025 -0.236389,0.103397 -0.701096,0.206018 -1.097091,0.24121 -0.02979,0.0027 -0.07889,0.0063 -0.10965,0.0084 -0.620632,0.04274 -0.844875,-0.0036 -1.410566,-0.290957 -0.02809,-0.01427 -0.0508,-0.02597 -0.05081,-0.02597 z m 2.720007,-1.308238 c 0.193617,-0.201483 0.398303,-0.52782 0.485956,-0.774533 0.01005,-0.02841 0.02429,-0.07581 0.03189,-0.105687 0.06478,-0.254591 0.08395,-0.614646 0.04651,-0.873584 -0.0044,-0.03003 -0.01345,-0.07882 -0.0207,-0.108779 -0.06553,-0.270875 -0.246703,-0.591087 -0.468591,-0.827519 -0.02106,-0.02244 -0.05638,-0.05776 -0.07886,-0.07886 -0.236455,-0.221882 -0.556677,-0.403042 -0.827544,-0.468542 -0.02991,-0.0073 -0.07903,-0.01641 -0.109539,-0.0208 -0.25916,-0.03733 -0.619208,-0.01802 -0.873566,0.04684 -0.02941,0.0075 -0.07695,0.02174 -0.105999,0.03207 -0.246403,0.08763 -0.570035,0.289855 -0.768467,0.480416 -0.02176,0.02089 -0.05598,0.05661 -0.07676,0.07938 -0.245545,0.269248 -0.346844,0.520011 -0.396477,0.9783 -0.0033,0.0308 -0.0082,0.08068 -0.01072,0.111403 -0.03648,0.432677 0.0022,0.718553 0.134206,0.985034 0.01369,0.02763 0.0376,0.07157 0.05366,0.09789 0.12477,0.204556 0.364094,0.468464 0.570997,0.629263 0.02395,0.01861 0.06418,0.04761 0.08952,0.06517 0.314005,0.217648 0.517024,0.259292 1.075782,0.225733 0.03124,-0.0019 0.08149,-0.0051 0.112239,-0.0075 0.548122,-0.03999 0.763936,-0.118372 1.055771,-0.387528 0.02298,-0.02119 0.04122,-0.03877 0.04121,-0.03877 z m -3.946781,-6.841224 c -0.06959,-0.08516 -0.127244,-0.201071 -0.153645,-0.304974 -0.01516,-0.05969 -0.01428,-0.162009 0.0083,-0.219246 0.04332,-0.109996 0.141625,-0.23501 0.259409,-0.324716 0.02441,-0.01859 0.06623,-0.04579 0.09202,-0.06269 l 0.160383,-0.105084 a 0.22155433,0.22155433 0 0 1 0.242849,1e-6 l 0.16038,0.105084 c 0.02579,0.01689 0.06771,0.04417 0.09229,0.06278 0.09514,0.07208 0.177548,0.165799 0.228495,0.255253 0.04806,0.08438 0.05081,0.249143 0.01277,0.339138 -0.03627,0.08582 -0.09331,0.175348 -0.159172,0.245934 -0.02091,0.02241 -0.05796,0.05589 -0.08216,0.07498 -0.08395,0.06622 -0.186146,0.122533 -0.27597,0.15416 -0.07016,0.02471 -0.194406,0.0251 -0.26499,-5.87e-4 -0.08222,-0.02992 -0.171804,-0.08136 -0.243365,-0.141729 -0.02303,-0.01943 -0.05807,-0.05445 -0.07756,-0.07832 z" />
</svg>